<?xml version="1.0" encoding="UTF-8"?>
<svg width="764px" height="73px" viewBox="0 0 764 73" version="1.1" xmlns="http://www.w3.org/2000/svg" xmlns:xlink="http://www.w3.org/1999/xlink">
    <title>logo-white</title>
    <g id="页面-1" stroke="none" stroke-width="1" fill="none" fill-rule="evenodd">
        <g id="编组-33" transform="translate(-552, 0)" fill="#FFFFFF">
            <g id="编组-27备份-2" transform="translate(552, 0)">
                <polygon id="Fill-1" points="278.0282 0.7811 278.0282 25.6381 247.9172 25.6381 247.9172 0.7811 235.9172 0.7811 235.9172 72.6731 247.9172 72.6731 247.9172 37.6381 278.0282 37.6381 278.0282 72.6731 290.0282 72.6731 290.0282 0.7811"></polygon>
                <path d="M313.1946,56.673 L313.1946,16.699 C313.1946,14.49 314.9856,12.699 317.1946,12.699 L337.6946,12.699 C339.9036,12.699 341.6946,14.49 341.6946,16.699 L341.6946,56.673 C341.6946,58.882 339.9036,60.673 337.6946,60.673 L317.1946,60.673 C314.9856,60.673 313.1946,58.882 313.1946,56.673 M301.1946,12.699 L301.1946,60.673 C301.1946,67.3 306.5676,72.673 313.1946,72.673 L341.6946,72.673 C348.3216,72.673 353.6946,67.3 353.6946,60.673 L353.6946,12.699 C353.6946,6.072 348.3216,0.699 341.6946,0.699 L313.1946,0.699 C306.5676,0.699 301.1946,6.072 301.1946,12.699" id="Fill-2"></path>
                <path d="M422.917,72.673 L410.917,72.673 L410.9165,38.2734 L376.0275,12.9544 L376.028,72.673 L364.028,72.673 L364.028,0.7 L379.5715,0.6994 L410.9165,23.4474 L410.917,0.781 L422.917,0.781 L422.917,72.673 Z" id="形状结合"></path>
                <polygon id="Fill-6" points="0 12 12 12 12 0 0 0"></polygon>
                <path d="M73.5198,0.0001 L23.9998,0.0001 L23.9998,12.0001 L69.5278,12.0001 C71.7368,12.0001 73.5278,13.7911 73.5278,16.0001 L73.5278,24.0831 C73.5278,26.2921 71.7368,28.0831 69.5278,28.0831 L23.9998,28.0831 L23.9998,72.6741 L35.9998,72.6741 L35.9998,40.0831 L73.5088,40.0831 C80.1338,40.0831 85.5048,34.7151 85.5088,28.0911 L85.5198022,12.0081 C85.5238,5.3771 80.1508,0.0001 73.5198,0.0001" id="Fill-7"></path>
                <polygon id="Fill-8" points="151.4651 0.0001 137.1351 0.0001 118.3391 28.8021 104.5061 0.0001 91.1941 0.0001 111.9121 43.1391 111.9121 72.6741 123.9121 72.6741 123.9121 42.2181"></polygon>
                <polygon id="Fill-9" points="567.7975 0.0001 553.4675 0.0001 534.6715 28.8021 520.8385 0.0001 507.5265 0.0001 528.2445 43.1391 528.2445 72.6741 540.2445 72.6741 540.2445 42.2181"></polygon>
                <polygon id="Fill-12" points="763.5229 60.6798 763.5229 60.6728 722.9109 60.6728 722.9109 42.7468 760.7819 42.7468 763.5209 30.7468 722.9109 30.7468 722.9109 12.8218 760.7819 12.8218 763.5209 0.8218 722.9109 0.8218 722.9109 0.7818 710.9109 0.7818 710.9109 0.8218 710.9109 12.8218 710.9109 30.7468 710.9109 42.7468 710.9109 60.6728 710.9109 72.6728 722.9109 72.6728 760.7859 72.6728"></polygon>
                <polygon id="Fill-13" points="159.6904 0.0001 156.9514 12.0001 185.2494 12.0001 185.2494 72.6741 197.2494 72.6741 197.2494 12.0001 222.8104 12.0001 225.5484 0.0011 225.5484 0.0001"></polygon>
                <path d="M489.2515,30.7677 L448.6765,30.7677 C447.0205,30.7677 445.6765,29.4247 445.6765,27.7677 L445.6765,15.7817 C445.6765,14.1237 447.0205,12.7817 448.6765,12.7817 L497.5125,12.7817 L500.2505,0.7817 L444.6765,0.7817 C438.6015,0.7817 433.6765,5.7057 433.6765,11.7817 L433.6765,31.7677 C433.6765,37.8427 438.6015,42.7677 444.6765,42.7677 L485.2515,42.7677 C486.9085,42.7677 488.2515,44.1107 488.2515,45.7677 L488.2515,57.7547 C488.2515,59.4127 486.9085,60.7547 485.2515,60.7547 L436.4165,60.7547 L433.6785,72.7547 L489.2515,72.7547 C495.3265,72.7547 500.2515,67.8307 500.2515,61.7547 L500.2515,41.7677 C500.2515,35.6927 495.3265,30.7677 489.2515,30.7677" id="Fill-14"></path>
                <polygon id="Fill-15" points="702.1052 60.714 661.5272 60.714 661.5272 0.821 649.5272 0.821 649.5272 72.714 651.5732 72.714 661.5272 72.714 699.3662 72.714"></polygon>
                <polygon id="Fill-16" points="575.1318 0.0001 572.3928 12.0001 600.6628 12.0001 600.6628 72.6741 612.6628 72.6741 612.6628 12.0001 638.2258 12.0001 640.9608 0.0161 640.9608 0.0001"></polygon>
            </g>
        </g>
    </g>
</svg>